<?xml version="1.0" standalone="no"?><!DOCTYPE svg PUBLIC "-//W3C//DTD SVG 1.1//EN" "http://www.w3.org/Graphics/SVG/1.1/DTD/svg11.dtd"><svg t="1592535875370" class="icon" viewBox="0 0 1024 1024" version="1.1" xmlns="http://www.w3.org/2000/svg" p-id="3966" xmlns:xlink="http://www.w3.org/1999/xlink" width="200" height="200"><defs><style type="text/css">@font-face { font-family: element-icons; src: url("chrome-extension://moombeodfomdpjnpocobemoiaemednkg/fonts/element-icons.woff") format("woff"), url("chrome-extension://moombeodfomdpjnpocobemoiaemednkg/fonts/element-icons.ttf ") format("truetype"); }
</style></defs><path d="M408 432a40 40 0 1 1 0-80 40 40 0 0 1 0 80zM800 544a32 32 0 1 1 0-64 32 32 0 0 1 0 64zM496 256c-141.392 0-256 114.608-256 256s114.608 256 256 256c66.704 0 129.088-25.648 175.936-70.016L485.968 512l185.968-185.984A255.168 255.168 0 0 0 496 256z m233.632 80.224L553.84 512l173.968 173.968a16 16 0 0 1 0.976 21.552l-1.008 1.216A303.328 303.328 0 0 1 496 816c-167.888 0-304-136.112-304-304s136.112-304 304-304c94.384 0 178.72 43.008 234.464 110.496a13.184 13.184 0 0 1-0.832 17.728z" p-id="3967" fill="#d81e06"></path></svg>